HIERARCHY
ROOT root
{
	OFFSET 0.000000 0.000000 0.000000
	CHANNELS 6 Xposition Yposition Zposition Zrotation Yrotation Xrotation
	JOINT lhip
	{
		OFFSET 0.058581 -0.082280 -0.017664
		CHANNELS 3 Zrotation Yrotation Xrotation
		JOINT lknee
		{
			OFFSET 0.043451 -0.386469 0.008037
			CHANNELS 3 Zrotation Yrotation Xrotation
			JOINT lankle
			{
				OFFSET -0.014790 -0.426874 -0.037428
				CHANNELS 3 Zrotation Yrotation Xrotation
				JOINT ltoe
				{
					OFFSET 0.041054 -0.060286 0.122042
					CHANNELS 3 Zrotation Yrotation Xrotation
					End Site
					{
						OFFSET 0.000000 0.000000 0.000000
					}
				}
			}
		}
	}
	JOINT rhip
	{
		OFFSET -0.060310 -0.090513 -0.013543
		CHANNELS 3 Zrotation Yrotation Xrotation
		JOINT rknee
		{
			OFFSET -0.043257 -0.383688 -0.004843
			CHANNELS 3 Zrotation Yrotation Xrotation
			JOINT rankle
			{
				OFFSET 0.019056 -0.420046 -0.034562
				CHANNELS 3 Zrotation Yrotation Xrotation
				JOINT rtoe
				{
					OFFSET -0.034840 -0.062106 0.130323
					CHANNELS 3 Zrotation Yrotation Xrotation
					End Site
					{
						OFFSET 0.000000 0.000000 0.000000
					}
				}
			}
		}
	}
	JOINT lowerback
	{
		OFFSET 0.004439 0.124404 -0.038385
		CHANNELS 3 Zrotation Yrotation Xrotation
		JOINT upperback
		{
			OFFSET 0.004488 0.137956 0.026820
			CHANNELS 3 Zrotation Yrotation Xrotation
			JOINT chest
			{
				OFFSET -0.002265 0.056032 0.002855
				CHANNELS 3 Zrotation Yrotation Xrotation
				JOINT lowerneck
				{
					OFFSET -0.013390 0.211636 -0.033468
					CHANNELS 3 Zrotation Yrotation Xrotation
					JOINT upperneck
					{
						OFFSET 0.010113 0.088937 0.050410
						CHANNELS 3 Zrotation Yrotation Xrotation
						End Site
						{
							OFFSET 0.000000 0.000000 0.000000
						}
					}
				}
				JOINT lclavicle
				{
					OFFSET 0.071702 0.114000 -0.018898
					CHANNELS 3 Zrotation Yrotation Xrotation
					JOINT lshoulder
					{
						OFFSET 0.122921 0.045205 -0.019046
						CHANNELS 3 Zrotation Yrotation Xrotation
						JOINT lelbow
						{
							OFFSET 0.255332 -0.015649 -0.022946
							CHANNELS 3 Zrotation Yrotation Xrotation
							JOINT lwrist
							{
								OFFSET 0.265709 0.012698 -0.007375
								CHANNELS 3 Zrotation Yrotation Xrotation
								End Site
								{
									OFFSET 0.000000 0.000000 0.000000
								}
							}
						}
					}
				}
				JOINT rclavicle
				{
					OFFSET -0.082954 0.112472 -0.023707
					CHANNELS 3 Zrotation Yrotation Xrotation
					JOINT rshoulder
					{
						OFFSET -0.113228 0.046853 -0.008472
						CHANNELS 3 Zrotation Yrotation Xrotation
						JOINT relbow
						{
							OFFSET -0.260127 -0.014369 -0.031269
							CHANNELS 3 Zrotation Yrotation Xrotation
							JOINT rwrist
							{
								OFFSET -0.269108 0.006794 -0.006027
								CHANNELS 3 Zrotation Yrotation Xrotation
								End Site
								{
									OFFSET 0.000000 0.000000 0.000000
								}
							}
						}
					}
				}
			}
		}
	}
}
MOTION
Frames: 15
Frame Time: 0.033333
1.162740 0.188517 0.989018 -92.205896 -0.135275 82.402359 7.127444 -2.168505 0.045055 -6.632107 -11.285129 16.911406 3.996792 10.874291 -17.567121 0.000000 -0.000000 0.000000 -0.558288 -4.355632 8.594033 5.735405 4.683965 5.873469 1.799841 -1.100146 -13.202085 0.000000 -0.000000 0.000000 -4.939698 5.044437 5.396119 2.174858 -3.700909 10.562422 1.179260 -0.543539 3.818053 4.517963 7.335656 14.200314 5.744851 0.994062 2.562312 -16.271403 2.284969 2.386022 -48.327760 -10.142757 6.883938 17.155090 -47.776421 -1.969212 7.113762 0.137661 -14.927466 21.678768 -1.765426 4.595809 64.493235 0.132242 8.868735 -14.648810 22.591415 -4.038433 1.014207 0.046448 -9.324718 
1.168337 0.189439 0.988156 -90.030780 0.412716 84.591462 6.052641 -1.683602 0.656542 -6.041436 -11.928374 14.763774 5.073353 9.635032 -17.956077 0.000000 -0.000000 0.000000 0.816249 -3.590055 5.831956 5.296950 2.706062 5.546066 1.471288 -2.113790 -12.664881 0.000000 -0.000000 0.000000 -5.301886 3.886544 4.581851 2.859367 -4.049835 9.554461 1.380232 -0.989308 3.645988 5.091757 6.914037 14.666091 5.522994 0.911638 3.747104 -16.743830 3.082421 3.028122 -51.048870 -10.502007 6.806854 21.446255 -45.106370 -1.081858 4.165775 -0.817525 -12.994750 21.694002 -2.740254 4.543897 65.623722 0.342155 8.781929 -17.451998 23.786053 -2.669503 4.169140 0.267764 -10.772182 
1.169055 0.188947 0.986577 -88.959132 1.414837 85.439502 4.597049 -1.540851 1.691815 -5.290763 -13.087601 11.849569 5.481940 9.071325 -17.781725 0.000000 -0.000000 0.000000 2.305232 -3.058956 4.854545 4.937527 1.792612 5.199625 1.158771 -2.812974 -12.361454 0.000000 -0.000000 0.000000 -3.975437 2.996903 4.239366 2.861603 -3.930760 8.803771 1.005049 -1.255092 4.400409 5.477285 6.570960 14.396029 5.309324 0.926858 5.304371 -17.150427 4.023368 3.034747 -53.504069 -10.686869 6.387799 24.652045 -42.616369 0.680455 1.549667 -1.639032 -11.004740 21.098856 -4.029808 4.050801 66.922410 0.871995 8.811974 -18.927766 25.097496 -0.533599 6.733000 0.481854 -12.160416 
1.170061 0.188920 0.985448 -88.049793 1.867424 85.932299 3.179076 -1.223142 3.108715 -4.515586 -14.653367 8.212729 5.986487 8.371251 -17.725344 0.000000 -0.000000 0.000000 3.109206 -2.774116 4.148480 4.580875 1.277280 4.995726 0.895106 -3.286229 -12.174798 0.000000 -0.000000 0.000000 -3.250610 2.414392 4.667472 2.705628 -3.570634 7.781138 0.770388 -1.426486 5.011712 6.442181 6.036249 14.069129 5.094414 0.738798 7.360218 -18.396200 5.526904 2.500013 -55.157597 -10.854736 5.672916 27.555962 -39.609278 2.875240 -1.029896 -2.712611 -7.596885 20.617437 -4.586737 3.189184 67.654957 1.517079 9.027978 -18.995762 24.695240 1.242383 7.783183 0.836134 -13.169849 
1.170196 0.188450 0.985291 -87.716140 1.996558 86.037574 2.462702 -1.075299 4.020879 -3.989665 -15.588051 5.917059 6.148270 7.968672 -17.557434 0.000000 -0.000000 0.000000 3.371418 -2.620496 4.022853 4.409398 1.179481 4.818215 0.829958 -3.609629 -12.006157 0.000000 -0.000000 0.000000 -2.964805 2.169878 4.891193 2.576036 -3.373893 7.502898 0.677584 -1.463086 5.232497 6.874010 5.733340 13.966632 5.022433 0.629407 8.568601 -19.332560 6.234620 2.315408 -55.864554 -10.762254 5.170044 29.449629 -38.146150 3.884787 -2.763766 -3.169307 -5.523916 20.596165 -4.645696 3.093357 67.723336 1.549511 9.081993 -19.422631 25.315705 1.789293 8.839331 1.367267 -13.971459 
1.170698 0.187332 0.984655 -87.469607 2.531673 86.707752 0.871235 -1.030082 6.181533 -2.805569 -17.597493 1.829863 6.205950 7.502602 -16.923708 0.000000 -0.000000 0.000000 4.090965 -1.899023 3.138692 4.288819 0.894543 4.844761 0.661800 -4.229966 -11.919292 0.000000 -0.000000 0.000000 -1.940573 1.553387 4.491501 2.318525 -2.786023 7.009457 0.278947 -1.567842 5.610037 7.428293 5.333143 13.819611 4.772315 0.610019 10.162975 -20.636417 7.159000 2.045407 -56.642839 -10.753486 4.679123 32.011234 -36.167961 5.100238 -5.450634 -3.617110 -2.680320 20.500719 -4.833136 2.927202 67.672833 1.703199 9.327513 -19.699912 25.836955 3.022095 10.862380 1.956644 -15.165797 
1.170475 0.186907 0.984958 -87.422231 2.611269 86.669652 0.871730 -1.105321 6.289859 -2.696797 -17.571810 1.820910 6.167718 7.489945 -16.704722 0.000000 -0.000000 0.000000 4.292066 -1.333709 3.189120 4.200005 0.737336 4.807818 0.391614 -4.770171 -11.858910 0.000000 -0.000000 0.000000 -1.655548 1.442425 4.691177 2.228053 -2.397105 6.848777 0.017022 -1.711830 5.620331 7.964585 4.796927 13.741920 4.733574 0.459813 11.692552 -21.872791 8.004784 2.095768 -57.414805 -10.434161 4.117688 34.177870 -34.405422 7.040730 -8.252204 -3.980501 -0.213716 20.632497 -5.034122 3.061877 67.455453 1.905807 9.358410 -19.859198 26.299623 4.237030 12.346458 2.620032 -16.461105 
1.170181 0.187048 0.985507 -87.098654 2.453456 86.666720 0.646053 -1.661711 6.344039 -2.689463 -17.323033 1.679494 6.962136 7.877918 -16.681797 0.000000 -0.000000 0.000000 4.109791 -1.872277 3.234172 4.184807 1.198154 4.823466 0.560672 -5.060982 -12.094942 0.000000 -0.000000 0.000000 -2.351470 2.056776 4.362743 2.364750 -3.092927 6.870571 0.983100 -1.547930 6.224930 6.858807 3.615411 14.058612 5.169471 1.211856 11.202799 -21.700393 5.980344 3.778688 -65.966264 -6.336164 10.538674 11.912778 -26.359816 6.568519 4.991439 -0.893764 -14.254307 20.361206 -4.953306 2.825529 66.402295 2.464686 11.041104 -18.481877 26.131849 -1.958118 1.819671 0.931330 -10.320005 
1.169872 0.187215 0.985523 -87.082507 2.428185 86.666016 0.627392 -1.752625 6.292984 -2.688203 -17.256030 1.768213 7.069993 7.861754 -16.766221 0.000000 -0.000000 0.000000 4.068075 -1.985078 3.321302 4.179104 1.143360 4.785724 0.684966 -4.985947 -12.036407 0.000000 -0.000000 0.000000 -2.407727 2.121272 4.328130 2.381229 -3.085758 6.867769 0.953786 -1.518149 6.211294 6.897010 3.443063 14.056071 5.340478 0.848261 11.241887 -21.700758 6.046774 3.692874 -65.963815 -6.525489 10.786349 12.025861 -27.711386 6.690891 4.833383 -0.743870 -14.395471 20.357845 -5.077225 2.813388 66.460951 2.389709 11.046181 -18.692285 26.696555 -1.983294 2.243064 0.660555 -10.494898 
1.169290 0.187505 0.985494 -87.086091 2.439498 86.678761 0.747696 -1.746245 6.307143 -2.754335 -17.190183 1.678752 7.011220 7.754690 -16.644211 0.000000 -0.000000 0.000000 4.088345 -1.983519 3.463496 4.188249 1.138643 4.652264 0.657324 -4.903687 -11.935159 0.000000 -0.000000 0.000000 -2.523264 2.153596 4.132171 2.386315 -3.080436 7.084140 0.931972 -1.504966 6.206927 6.930598 3.377429 13.876199 5.513144 0.596879 11.305292 -21.617365 5.988784 3.604457 -66.079079 -6.892783 11.059883 12.360933 -29.243517 6.523437 4.978494 -0.756907 -14.624833 20.432301 -4.949378 2.867335 66.438201 2.532004 11.059727 -18.882565 26.911659 -1.945318 2.343787 0.996905 -10.066416 
1.169350 0.187469 0.985513 -87.279281 2.431568 86.820538 0.733765 -1.818759 6.103988 -2.766794 -16.958582 1.719118 7.042065 7.804543 -16.691782 0.000000 -0.000000 0.000000 4.031120 -2.254903 3.262683 4.224743 1.243646 4.722053 0.785294 -4.645913 -11.878932 0.000000 -0.000000 0.000000 -2.571585 2.234176 3.877365 2.382968 -3.033122 7.187326 0.866570 -1.460932 6.186349 7.011392 3.353348 13.865515 5.553332 0.520665 11.370219 -21.557279 6.075502 3.518895 -66.083633 -7.178144 11.386849 12.567377 -30.509375 6.677367 5.010315 -0.967461 -15.096181 20.414707 -4.904671 2.868170 66.555484 2.610630 11.209485 -18.859260 26.873922 -1.972977 2.608524 0.743688 -10.552755 
1.168990 0.187415 0.985611 -87.352634 2.429712 86.791347 0.726036 -1.815796 6.147919 -2.770468 -16.867690 1.736555 7.234725 7.821912 -16.632356 0.000000 -0.000000 0.000000 4.009988 -2.400157 3.312689 4.182141 1.267747 4.755304 0.764812 -4.502609 -11.934643 0.000000 -0.000000 0.000000 -2.669530 2.288786 3.812537 2.340324 -3.032328 7.313515 0.951514 -1.317460 6.053340 6.946228 3.517615 13.934094 5.600809 0.622436 11.605402 -21.448370 5.744455 3.561640 -66.261853 -7.363338 11.480893 12.938824 -31.480362 6.257173 5.143435 -0.547895 -14.814730 20.467820 -4.224432 3.254728 66.587989 2.182154 11.136475 -19.332721 27.069201 -2.690953 2.447464 0.815167 -10.784617 
1.168991 0.187353 0.985714 -87.357470 2.479794 86.798383 0.765711 -1.918699 6.156449 -2.739721 -16.844716 1.695753 7.129670 7.859600 -16.622341 0.000000 -0.000000 0.000000 4.114338 -2.222664 3.357765 4.133319 1.191062 4.716914 0.771148 -4.570191 -11.900920 0.000000 -0.000000 0.000000 -2.665509 2.202006 3.939361 2.331729 -3.041596 7.194414 0.974141 -1.284676 6.011434 6.862957 3.729536 14.004792 5.595856 0.717621 11.543643 -21.389271 5.773796 3.543117 -66.249705 -7.587836 11.639469 12.837471 -32.342832 6.368252 5.197799 -0.900229 -15.231749 20.450365 -4.135525 3.308908 66.592620 2.012141 11.255228 -19.266091 27.318843 -2.384360 2.516417 0.846537 -10.573123 
1.168955 0.187490 0.985711 -87.401328 2.508822 86.793297 0.814359 -1.989113 6.151156 -2.766713 -16.767832 1.724154 7.126977 7.856306 -16.561496 0.000000 -0.000000 0.000000 4.176971 -2.073306 3.383102 4.104336 1.023211 4.675167 0.799693 -4.656350 -11.855645 0.000000 -0.000000 0.000000 -2.712173 2.149819 3.991321 2.344829 -3.085140 7.191585 0.999078 -1.298263 5.975915 6.787827 3.680949 14.141398 5.578534 0.731086 11.418878 -21.274410 5.615405 3.629811 -66.356545 -7.741097 11.836125 13.079078 -33.035631 6.242995 5.259044 -1.126350 -15.767635 20.369050 -4.059611 3.316029 66.733606 1.885361 11.345900 -19.341539 27.481634 -2.368017 2.441307 0.869397 -10.604529 
1.169096 0.187552 0.985734 -87.492408 2.584505 86.923781 0.937695 -1.968709 5.941947 -2.849099 -16.613894 1.816258 7.160588 7.792169 -16.551461 0.000000 -0.000000 0.000000 4.236698 -2.267266 3.166230 4.097065 1.181084 4.828850 0.748600 -4.469806 -11.909404 0.000000 -0.000000 0.000000 -2.712429 2.094593 3.834383 2.376113 -3.146889 7.243680 0.999821 -1.276069 5.938562 6.769608 3.693286 14.167219 5.571872 0.788629 11.445573 -21.308854 5.581926 3.624250 -66.396310 -7.903792 11.950764 13.192967 -33.349018 6.395933 5.358479 -1.183973 -15.710545 20.535714 -4.005100 3.432816 66.605697 1.937632 11.326107 -19.467698 27.425043 -2.296227 2.354830 1.206980 -10.247516 
